<?xml version="1.0" encoding="utf-8"?>
<!-- Generator: Adobe Illustrator 24.1.2, SVG Export Plug-In . SVG Version: 6.00 Build 0)  -->
<svg version="1.1" id="Warstwa_3" xmlns="http://www.w3.org/2000/svg" xmlns:xlink="http://www.w3.org/1999/xlink" x="0px" y="0px"
	 viewBox="0 0 430 430" style="enable-background:new 0 0 430 430;" xml:space="preserve">
<style type="text/css">
	.st0{fill:#fff;}
	.st1{fill:#fff;}
	.st2{fill:none;stroke:#fff;stroke-width:12.25;stroke-miterlimit:14;}
	.st3{fill-opacity:0;}
	.st4{fill:#fff;}
	.st5{fill:none;}
</style>
<g>
	<path class="st0" d="M306.33,407.21H123.67c-10.8,0-19.59-8.79-19.59-19.59V42.37c0-10.8,8.79-19.59,19.59-19.59h182.65
		c10.8,0,19.59,8.79,19.59,19.59v345.25C325.91,398.43,317.13,407.21,306.33,407.21z M123.67,35.55c-3.76,0-6.83,3.06-6.83,6.83
		v345.25c0,3.76,3.06,6.83,6.83,6.83h182.65c3.76,0,6.83-3.06,6.83-6.83V42.37c0-3.76-3.06-6.83-6.83-6.83H123.67z"/>
	<path class="st1" d="M263.59,385.34h-97.19c-3.52,0-6.38-2.86-6.38-6.38s2.86-6.38,6.38-6.38h97.19c3.52,0,6.38,2.86,6.38,6.38
		S267.11,385.34,263.59,385.34z"/>
	<path class="st0" d="M154.71,29.17h4.21c5.7,0,10.65,6.26,11.93,11.82v-2.33c0.9,3.88,4.35,8.95,8.33,8.95h71.65
		c3.98,0,7.43-2.75,8.33-6.63v-2.33c1.28-5.56,6.23-9.49,11.93-9.49h4.98"/>
	<path class="st3" d="M154.71,29.17h4.21c5.7,0,10.65,6.26,11.93,11.82v-2.33c0.9,3.88,4.35,8.95,8.33,8.95h71.65
		c3.98,0,7.43-2.75,8.33-6.63v-2.33c1.28-5.56,6.23-9.49,11.93-9.49h4.98"/>
</g>
</svg>
